# xmcd
#
# Track frame offsets:
#	150
#	20026
#	38649
#	55376
#	74978
#	93520
#	111700
#	135047
#	153909
#	174536
#	198074
#	217652
#	235370
#
# Disc length: 3380 seconds
#
# Revision: 0
# Processed by: cddbd v1.5.2PL0 Copyright (c) Steve Scherf et al.
# Submitted via: EasyCDDAExtractor 16.0.9.1
#
DISCID=b40d320d
DTITLE=Various Artist - Gió Mùa Xuân Tới
DYEAR=2007
DGENRE=Pop
TTITLE0=Hồ Lệ Thu and Bảo Hân - Gió Mùa Xuân Tới
TTITLE1=Minh Tuyết - Xuân Này Nếu Vắng Anh
TTITLE2=Lương Tùng Quang and Tú Quyên - Thiên Duyên Tiền Định
TTITLE3=Thế Sơn, Trần Thái Hòa, Tiến Dũng, Hương Thủy, Tâm Đoan and Ngọc Liên - 
TTITLE3=Xuân Trong Rừng Thẳm
TTITLE4=Nguyễn Hưng - Đầu Xuân Lính Chúc
TTITLE5=Loan Châu - Mộng Lành
TTITLE6=Bằng Kiều - Em Đến Thăm Anh Đêm 30
TTITLE7=Ngọc Liên - Hơi Thở Mùa Xuân
TTITLE8=Trần Thu Hà - Nét Ca Trù Ngày Xuân
TTITLE9=Như Loan, Bảo Hân, Hồ Lệ Thu, Minh Tuyết, Hà Phương, Loan Châu, Hương 
TTITLE9=Thủy, Tú Quyên, Thanh Trúc, Tâm Đoan - Liên Khúc: Chiều Xuân and Thì Thầ
TTITLE9=m Mùa Xuân
TTITLE10=Thanh Trúc and Như Loan - Xuân Mộng
TTITLE11=Nguyễn Hưng, Thế Sơn, Quang Lê, Trần Thái Hòa and Lương Tùng Quang - Xu
TTITLE11=ân Nghệ Sĩ Hành Khúc
TTITLE12=Hợp Ca - Mừng Nắng Xuân Về
EXTD=
EXTT0=
EXTT1=
EXTT2=
EXTT3=
EXTT4=
EXTT5=
EXTT6=
EXTT7=
EXTT8=
EXTT9=
EXTT10=
EXTT11=
EXTT12=
PLAYORDER=
